<svg width="29" height="28" viewBox="0 0 29 28" fill="none" xmlns="http://www.w3.org/2000/svg">
<path d="M22.6719 15.5209C22.6719 21.0437 18.1947 25.5209 12.6719 25.5209C7.14903 25.5209 2.67188 21.0437 2.67188 15.5209C2.67188 9.99803 7.14903 5.52087 12.6719 5.52087" stroke="black" stroke-width="2" stroke-linecap="round" stroke-linejoin="round"/>
<path d="M12.6719 9.52087V15.5209L16.6719 17.5209" stroke="black" stroke-width="2" stroke-linecap="round" stroke-linejoin="round"/>
<path d="M16.9716 11V10.1136L19.0426 8.19602C19.2188 8.02557 19.3665 7.87216 19.4858 7.7358C19.607 7.59943 19.6989 7.46591 19.7614 7.33523C19.8239 7.20265 19.8551 7.05966 19.8551 6.90625C19.8551 6.7358 19.8163 6.58902 19.7386 6.46591C19.661 6.34091 19.5549 6.24527 19.4205 6.17898C19.286 6.1108 19.1335 6.0767 18.9631 6.0767C18.785 6.0767 18.6297 6.11269 18.4972 6.18466C18.3646 6.25663 18.2623 6.35985 18.1903 6.49432C18.1184 6.62879 18.0824 6.78883 18.0824 6.97443H16.9148C16.9148 6.59375 17.0009 6.26326 17.1733 5.98295C17.3456 5.70265 17.5871 5.4858 17.8977 5.33239C18.2083 5.17898 18.5663 5.10227 18.9716 5.10227C19.3883 5.10227 19.7509 5.17614 20.0597 5.32386C20.3703 5.4697 20.6117 5.67235 20.7841 5.93182C20.9564 6.19129 21.0426 6.48864 21.0426 6.82386C21.0426 7.04356 20.9991 7.26042 20.9119 7.47443C20.8267 7.68845 20.6742 7.92614 20.4545 8.1875C20.2348 8.44697 19.9252 8.75852 19.5256 9.12216L18.6761 9.95455V9.99432H21.1193V11H16.9716ZM21.7976 9.97727V9.00852L24.2266 5.18182H25.0618V6.52273H24.5675L23.0362 8.94602V8.99148H26.4879V9.97727H21.7976ZM24.5902 11V9.68182L24.6129 9.25284V5.18182H25.7663V11H24.5902Z" fill="black"/>
</svg>
